<svg width="60" height="60" viewBox="0 0 60 60" fill="none" xmlns="http://www.w3.org/2000/svg">
<path d="M30 58.9996C46.0163 58.9996 59 46.0159 59 29.9996C59 13.9834 46.0163 0.999634 30 0.999634C13.9838 0.999634 1.00002 13.9834 1.00002 29.9996C1.00002 46.0159 13.9838 58.9996 30 58.9996Z" fill="#455A65"/>
<path d="M42.9353 4.04498C48.2867 8.65937 51.7689 15.0691 52.7277 22.0699C53.6864 29.0707 52.0558 36.1806 48.1421 42.0639C44.2283 47.9472 38.3009 52.1988 31.4735 54.02C24.6461 55.8412 17.3887 55.1066 11.0647 51.9542C14.1787 54.6403 17.8285 56.6333 21.7717 57.8009C25.7149 58.9684 29.8613 59.2839 33.9358 58.7262C38.0102 58.1686 41.9194 56.7506 45.4039 54.5665C48.8884 52.3824 51.8684 49.482 54.1462 46.058C56.4239 42.634 57.9473 38.7646 58.6152 34.7068C59.283 30.6489 59.08 26.4955 58.0198 22.5221C56.9595 18.5487 55.0661 14.8463 52.4654 11.6606C49.8647 8.47498 46.6161 5.87899 42.9353 4.04498Z" fill="#384951"/>
<path d="M41 28.9996C34.52 41.9496 34.9 52.3396 34.98 58.5696C30.2787 59.3882 25.4481 59.0344 20.9163 57.5395C16.3845 56.0446 12.2915 53.4548 9.00002 49.9996C10.0487 44.8579 12.8825 40.2529 17 36.9996H10C10 33.6796 13.03 30.9996 18 30.9996C20 25.9996 23 21.9996 31 21.9996C36 12.9996 43 7.99964 40 22.9996C45 17.9996 44 23.9996 41 28.9996Z" fill="#3A3A3A"/>
<path d="M19.5 33.9996C21.5 28.9996 24.5 24.9996 32.5 24.9996C35.3143 19.9339 38.7621 16.1358 40.7038 16.4577C40.379 10.0768 35.0386 14.7302 31 21.9996C23 21.9996 20 25.9996 18 30.9996C13.03 30.9996 10 33.6796 10 36.9996H12.4561C13.7162 35.2064 16.1693 33.9996 19.5 33.9996Z" fill="#3F3F3F"/>
<path d="M40 22.9996C39.2097 23.9474 38.5186 24.9736 37.9375 26.0621C31.4575 39.0121 29.92 48.7696 30 54.9996C27.0778 54.9119 24.1698 54.5562 21.3125 53.9371C17.9375 53.1871 14.1647 52.7363 9.26388 48.9421C9.1736 49.2946 9.0707 49.6464 9.00002 49.9996C12.2915 53.4548 16.3845 56.0446 20.9163 57.5395C25.4481 59.0344 30.2787 59.3882 34.98 58.5696C34.9 52.3396 34.52 41.9496 41 28.9996C44 23.9996 45 17.9996 40 22.9996Z" fill="#2D2D2D"/>
<path d="M30 0C24.0666 0 18.2664 1.75947 13.3329 5.05591C8.39943 8.35235 4.55426 13.0377 2.28363 18.5195C0.0129986 24.0013 -0.581102 30.0333 0.576455 35.8527C1.73401 41.6721 4.59123 47.0176 8.78681 51.2132C12.9824 55.4088 18.3279 58.266 24.1473 59.4236C29.9667 60.5811 35.9987 59.987 41.4805 57.7164C46.9623 55.4458 51.6477 51.6006 54.9441 46.6671C58.2405 41.7336 60 35.9334 60 30C59.991 22.0463 56.8274 14.4209 51.2033 8.79675C45.5791 3.17262 37.9537 0.00901479 30 0ZM10.1088 49.6834C11.1834 44.9863 13.8253 40.7951 17.5996 37.7998C17.7675 37.6739 17.8915 37.4984 17.9541 37.2981C18.0167 37.0978 18.0147 36.8829 17.9483 36.6838C17.882 36.4848 17.7547 36.3116 17.5845 36.1889C17.4143 36.0661 17.2098 36.0001 17 36H11.1172C11.6944 33.6011 14.3633 32 18 32C18.1999 32 18.3951 31.9401 18.5607 31.8281C18.7262 31.7161 18.8544 31.5571 18.9287 31.3716C20.9385 26.3466 23.7608 23 31 23C31.1783 23.0001 31.3534 22.9525 31.5071 22.8621C31.6608 22.7717 31.7875 22.6417 31.874 22.4858C35.1553 16.5801 38.2588 14.1548 39.0918 14.4575C39.1064 14.4629 40.5615 15.0933 39.0195 22.8037C38.9773 23.0142 39.004 23.2326 39.0956 23.4267C39.1872 23.6209 39.3388 23.7804 39.528 23.8817C39.7172 23.983 39.9341 24.0207 40.1464 23.9892C40.3587 23.9578 40.5553 23.8588 40.707 23.707C41.2345 23.1321 41.8412 22.6353 42.5088 22.2314C42.1851 24.4904 41.3643 26.6493 40.1055 28.5527C33.7325 41.2993 33.8799 50.1592 33.9775 56.0215C33.9875 56.6141 33.9942 57.1677 33.9967 57.7101C29.6644 58.3394 25.2449 57.9408 21.0952 56.5464C16.9455 55.152 13.182 52.8011 10.1088 49.6834H10.1088ZM35.9928 57.3475C35.9888 56.9028 35.9855 56.465 35.9776 55.9883C35.877 49.9819 35.7403 41.7559 41.8575 29.5147C43.3516 27.0249 45.6778 21.9272 43.7891 20.4527C43.4363 20.2247 43.0219 20.1107 42.6021 20.1261C42.1824 20.1416 41.7775 20.2858 41.4424 20.5391C42.1241 15.792 41.5821 13.2422 39.7813 12.5801C37.0069 11.5601 33.0713 16.3726 30.4122 21.0073C22.3506 21.209 19.211 25.5654 17.3233 30.0161C12.3887 30.2505 9.00001 33.0561 9.00001 37C8.99998 37.1313 9.02582 37.2614 9.07606 37.3827C9.12631 37.5041 9.19997 37.6143 9.29283 37.7072C9.3857 37.8 9.49595 37.8737 9.61729 37.924C9.73863 37.9742 9.86868 38 10 38H14.335C11.6113 40.7792 9.60757 44.1815 8.49781 47.9113C4.59027 43.2169 2.32551 37.3732 2.04899 31.2717C1.77248 25.1701 3.49939 19.1455 6.96631 14.117C10.4332 9.08844 15.4498 5.33195 21.2509 3.42054C27.0519 1.50912 33.319 1.54771 39.0961 3.5304C44.8732 5.5131 49.8431 9.33108 53.2479 14.4019C56.6526 19.4728 58.3052 25.5181 57.9536 31.6159C57.602 37.7136 55.2654 43.5289 51.3004 48.1748C47.3353 52.8207 41.9594 56.042 35.9927 57.3475H35.9928Z" fill="#D6C8BB"/>
</svg>
